{"title":"Fear.The.Walking.Dead.S01E02.HDTV.480p.x264.AAC-VYTO [P2PDL]","uid":12317141,"size":153178050,"categoryP":"video","categoryS":"tv_shows","magnet":"?xt=urn:btih:c68163da78c69245a305a0cebb9a932f4085eee8&amp;dn=Fear.The.Walking.Dead.S01E02.HDTV.480p.x264.AAC-VYTO+%5BP2PDL%5D&amp;tr=udp%3A%2F%2Ftracker.openbittorrent.com%3A80&amp;tr=udp%3A%2F%2Fopen.demonii.com%3A1337&amp;tr=udp%3A%2F%2Ftracker.coppersurfer.tk%3A6969&amp;tr=udp%3A%2F%2Fexodus.desync.com%3A6969","seeders":7,"leechers":8,"uploader":"ValidusVyto","files":6,"time":1441015436,"description":"____    ____ ____    ____ .___________.  ______   \n     /   /      /   / |           | /  __    \n    /   /      /   /  `---|  |----`|  |  |  | \n        /     _    _/       |  |     |  |  |  | \n       /        |  |         |  |     |  `--'  | \n    __/         |__|         |__|      ______/  \n                                                  \nPresenting Small Encodes with quality for years!\n                                                                                                   \n                                                                                                   \n\nFear.The.Walking.Dead.S01E02.HDTV.480p.x264.AAC-VYTO\n\n\nGeneral\nFormat                         : MPEG-4\nFile size                      : 141 MiB\nDuration                       : 42mn 57s\nOverall bit rate               : 460 Kbps\n\nVideo\nFormat                         : AVC\nBit rate                       : 425 Kbps\nWidth                          : 720 pixels\nHeight                         : 400 pixels\nDisplay aspect ratio           : 16:9\nFrame rate mode                : Constant\nFrame rate                     : 23.976 fps\nBit depth                      : 8 bits\nStream size                    : 131 MiB (92%)\nWriting library                : x264 core 148 r2597\n\nAudio\nFormat                         : AAC\nBit rate mode                  : Variable\nBit rate                       : 32.0 Kbps\nChannel(s)                     : 2 channels\nChannel positions              : Front: L R\nSampling rate                  : 48.0 KHz \nStream size                    : 9.83 MiB (7%)\n\n\nScreenshots:\n &lt;a href=&quot;\nhttp://ititli.com/KA&quot; rel=&quot;nofollow&quot; target=&quot;_NEW&quot;&gt;\nhttp://ititli.com/KA&lt;/a&gt; &lt;a href=&quot;\nhttp://ititli.com/Kl&quot; rel=&quot;nofollow&quot; target=&quot;_NEW&quot;&gt;\nhttp://ititli.com/Kl&lt;/a&gt; &lt;a href=&quot;\nhttp://ititli.com/Km&quot; rel=&quot;nofollow&quot; target=&quot;_NEW&quot;&gt;\nhttp://ititli.com/Km&lt;/a&gt; &lt;a href=&quot;\nhttp://ititli.com/Kx&quot; rel=&quot;nofollow&quot; target=&quot;_NEW&quot;&gt;\nhttp://ititli.com/Kx&lt;/a&gt; &lt;a href=&quot;\nhttp://ititli.com/K7&quot; rel=&quot;nofollow&quot; target=&quot;_NEW&quot;&gt;\nhttp://ititli.com/K7&lt;/a&gt; &lt;a href=&quot;\nhttp://ititli.com/KC&quot; rel=&quot;nofollow&quot; target=&quot;_NEW&quot;&gt;\nhttp://ititli.com/KC&lt;/a&gt; &lt;a href=&quot;\nhttp://ititli.com/KF&quot; rel=&quot;nofollow&quot; target=&quot;_NEW&quot;&gt;\nhttp://ititli.com/KF&lt;/a&gt; &lt;a href=&quot;\nhttp://ititli.com/KJ&quot; rel=&quot;nofollow&quot; target=&quot;_NEW&quot;&gt;\nhttp://ititli.com/KJ&lt;/a&gt; &lt;a href=&quot;\nhttp://ititli.com/K5&quot; rel=&quot;nofollow&quot; target=&quot;_NEW&quot;&gt;\nhttp://ititli.com/K5&lt;/a&gt; &lt;a href=&quot;\nhttp://ititli.com/KB&quot; rel=&quot;nofollow&quot; target=&quot;_NEW&quot;&gt;\nhttp://ititli.com/KB&lt;/a&gt; &lt;a href=&quot;\nhttp://ititli.com/KN&quot; rel=&quot;nofollow&quot; target=&quot;_NEW&quot;&gt;\nhttp://ititli.com/KN&lt;/a&gt; &lt;a href=&quot;\nhttp://ititli.com/KP&quot; rel=&quot;nofollow&quot; target=&quot;_NEW&quot;&gt;\nhttp://ititli.com/KP&lt;/a&gt;\n\n----------------------------------------------------------------------------------------------------\n\n\nEncoder Notes: Looking For Early Access To Anything You Can Provide DVDScr, R5, DVDR, BluRay, Direct\nAudio, Music Releases and Seedboxes. If You Got anything to offer please contact us.\n\nSupport us by donating BC - 1FgwdzPsd1y25Gea8wP1qni35uGCtmkRCD","torrent":{"xt":"urn:btih:c68163da78c69245a305a0cebb9a932f4085eee8","amp;dn":"Fear.The.Walking.Dead.S01E02.HDTV.480p.x264.AAC-VYTO+%5BP2PDL%5D","amp;tr":["udp%3A%2F%2Ftracker.openbittorrent.com%3A80","udp%3A%2F%2Fopen.demonii.com%3A1337","udp%3A%2F%2Ftracker.coppersurfer.tk%3A6969","udp%3A%2F%2Fexodus.desync.com%3A6969"],"infoHash":"c68163da78c69245a305a0cebb9a932f4085eee8","infoHashBuffer":{"type":"Buffer","data":[198,129,99,218,120,198,146,69,163,5,160,206,187,154,147,47,64,133,238,232]},"announce":[],"urlList":[]}}